<svg width="1024" height="753" viewBox="0 0 1024 753" fill="none" xmlns="http://www.w3.org/2000/svg">
<g clip-path="url(#clip0_122_130)">
<rect width="1024" height="753" fill="#121214"/>
<g opacity="0.2" filter="url(#filter0_f_122_130)">
<ellipse cx="735" cy="79.8907" rx="685" ry="393.891" fill="#338AF3"/>
</g>
<path d="M245.166 345.486C246.694 345.486 247.85 346.195 248.635 347.614C249.435 349.017 249.835 351.06 249.835 353.742C249.835 356.423 249.435 358.474 248.635 359.893C247.85 361.312 246.694 362.021 245.166 362.021C243.653 362.021 242.496 361.312 241.697 359.893C240.897 358.474 240.497 356.423 240.497 353.742C240.497 351.075 240.897 349.033 241.697 347.614C242.496 346.195 243.653 345.486 245.166 345.486ZM242.018 353.742C242.018 355.644 242.175 357.133 242.489 358.209L247.243 347.848C246.744 347.115 246.051 346.749 245.166 346.749C244.181 346.749 243.41 347.325 242.853 348.479C242.296 349.617 242.018 351.372 242.018 353.742ZM245.166 360.735C246.166 360.735 246.944 360.166 247.5 359.027C248.057 357.874 248.336 356.112 248.336 353.742C248.336 351.73 248.157 350.171 247.8 349.064L243.046 359.519C243.56 360.329 244.267 360.735 245.166 360.735Z" fill="url(#paint0_linear_122_130)" fill-opacity="0.6"/>
<path d="M246.451 387.277H249.599V388.517H241.44V387.277H245.08V374.133L241.611 376.402L241.011 375.349L245.295 372.449H246.451V387.277Z" fill="url(#paint1_linear_122_130)" fill-opacity="0.6"/>
<path d="M245.166 398.945C246.694 398.945 247.85 399.654 248.635 401.073C249.435 402.476 249.835 404.519 249.835 407.201C249.835 409.882 249.435 411.933 248.635 413.352C247.85 414.771 246.694 415.48 245.166 415.48C243.653 415.48 242.496 414.771 241.697 413.352C240.897 411.933 240.497 409.882 240.497 407.201C240.497 404.534 240.897 402.492 241.697 401.073C242.496 399.654 243.653 398.945 245.166 398.945ZM242.018 407.201C242.018 409.103 242.175 410.592 242.489 411.668L247.243 401.307C246.744 400.574 246.051 400.207 245.166 400.207C244.181 400.207 243.41 400.784 242.853 401.938C242.296 403.076 242.018 404.831 242.018 407.201ZM245.166 414.194C246.166 414.194 246.944 413.625 247.5 412.486C248.057 411.333 248.336 409.571 248.336 407.201C248.336 405.189 248.157 403.63 247.8 402.523L243.046 412.977C243.56 413.788 244.267 414.194 245.166 414.194Z" fill="url(#paint2_linear_122_130)" fill-opacity="0.6"/>
<path d="M246.451 440.736H249.599V441.976H241.44V440.736H245.08V427.592L241.611 429.861L241.011 428.808L245.295 425.908H246.451V440.736Z" fill="url(#paint3_linear_122_130)" fill-opacity="0.6"/>
<path d="M246.451 467.466H249.599V468.705H241.44V467.466H245.08V454.321L241.611 456.59L241.011 455.538L245.295 452.637H246.451V467.466Z" fill="url(#paint4_linear_122_130)" fill-opacity="0.6"/>
<path d="M245.166 479.133C246.694 479.133 247.85 479.842 248.635 481.261C249.435 482.665 249.835 484.707 249.835 487.389C249.835 490.071 249.435 492.121 248.635 493.54C247.85 494.959 246.694 495.669 245.166 495.669C243.653 495.669 242.496 494.959 241.697 493.54C240.897 492.121 240.497 490.071 240.497 487.389C240.497 484.723 240.897 482.68 241.697 481.261C242.496 479.842 243.653 479.133 245.166 479.133ZM242.018 487.389C242.018 489.291 242.175 490.78 242.489 491.856L247.243 481.495C246.744 480.762 246.051 480.396 245.166 480.396C244.181 480.396 243.41 480.973 242.853 482.127C242.296 483.265 242.018 485.019 242.018 487.389ZM245.166 494.382C246.166 494.382 246.944 493.813 247.5 492.675C248.057 491.521 248.336 489.759 248.336 487.389C248.336 485.378 248.157 483.818 247.8 482.711L243.046 493.166C243.56 493.977 244.267 494.382 245.166 494.382Z" fill="url(#paint5_linear_122_130)" fill-opacity="0.6"/>
<path d="M246.451 520.925H249.599V522.164H241.44V520.925H245.08V507.78L241.611 510.049L241.011 508.996L245.295 506.096H246.451V520.925Z" fill="url(#paint6_linear_122_130)" fill-opacity="0.6"/>
<path d="M245.166 532.592C246.694 532.592 247.85 533.301 248.635 534.72C249.435 536.124 249.835 538.166 249.835 540.848C249.835 543.53 249.435 545.58 248.635 546.999C247.85 548.418 246.694 549.127 245.166 549.127C243.653 549.127 242.496 548.418 241.697 546.999C240.897 545.58 240.497 543.53 240.497 540.848C240.497 538.182 240.897 536.139 241.697 534.72C242.496 533.301 243.653 532.592 245.166 532.592ZM242.018 540.848C242.018 542.75 242.175 544.239 242.489 545.315L247.243 534.954C246.744 534.221 246.051 533.855 245.166 533.855C244.181 533.855 243.41 534.432 242.853 535.586C242.296 536.724 242.018 538.478 242.018 540.848ZM245.166 547.841C246.166 547.841 246.944 547.272 247.5 546.134C248.057 544.98 248.336 543.218 248.336 540.848C248.336 538.837 248.157 537.277 247.8 536.17L243.046 546.625C243.56 547.436 244.267 547.841 245.166 547.841Z" fill="url(#paint7_linear_122_130)" fill-opacity="0.6"/>
<path d="M245.166 559.321C246.694 559.321 247.85 560.031 248.635 561.45C249.435 562.853 249.835 564.896 249.835 567.578C249.835 570.259 249.435 572.31 248.635 573.729C247.85 575.147 246.694 575.857 245.166 575.857C243.653 575.857 242.496 575.147 241.697 573.729C240.897 572.31 240.497 570.259 240.497 567.578C240.497 564.911 240.897 562.869 241.697 561.45C242.496 560.031 243.653 559.321 245.166 559.321ZM242.018 567.578C242.018 569.48 242.175 570.969 242.489 572.045L247.243 561.684C246.744 560.951 246.051 560.584 245.166 560.584C244.181 560.584 243.41 561.161 242.853 562.315C242.296 563.453 242.018 565.207 242.018 567.578ZM245.166 574.571C246.166 574.571 246.944 574.001 247.5 572.863C248.057 571.709 248.336 569.948 248.336 567.578C248.336 565.566 248.157 564.007 247.8 562.9L243.046 573.354C243.56 574.165 244.267 574.571 245.166 574.571Z" fill="url(#paint8_linear_122_130)" fill-opacity="0.6"/>
<path d="M246.451 601.113H249.599V602.353H241.44V601.113H245.08V587.969L241.611 590.237L241.011 589.185L245.295 586.285H246.451V601.113Z" fill="url(#paint9_linear_122_130)" fill-opacity="0.6"/>
<path d="M245.166 612.78C246.694 612.78 247.85 613.49 248.635 614.909C249.435 616.312 249.835 618.355 249.835 621.036C249.835 623.718 249.435 625.769 248.635 627.188C247.85 628.606 246.694 629.316 245.166 629.316C243.653 629.316 242.496 628.606 241.697 627.188C240.897 625.769 240.497 623.718 240.497 621.036C240.497 618.37 240.897 616.328 241.697 614.909C242.496 613.49 243.653 612.78 245.166 612.78ZM242.018 621.036C242.018 622.939 242.175 624.428 242.489 625.504L247.243 615.143C246.744 614.41 246.051 614.043 245.166 614.043C244.181 614.043 243.41 614.62 242.853 615.774C242.296 616.912 242.018 618.666 242.018 621.036ZM245.166 628.03C246.166 628.03 246.944 627.46 247.5 626.322C248.057 625.168 248.336 623.406 248.336 621.036C248.336 619.025 248.157 617.466 247.8 616.359L243.046 626.813C243.56 627.624 244.267 628.03 245.166 628.03Z" fill="url(#paint10_linear_122_130)" fill-opacity="0.6"/>
<path d="M246.451 654.572H249.599V655.812H241.44V654.572H245.08V641.428L241.611 643.696L241.011 642.644L245.295 639.744H246.451V654.572Z" fill="url(#paint11_linear_122_130)" fill-opacity="0.6"/>
<path d="M246.451 681.301H249.599V682.541H241.44V681.301H245.08V668.157L241.611 670.426L241.011 669.373L245.295 666.473H246.451V681.301Z" fill="url(#paint12_linear_122_130)" fill-opacity="0.6"/>
<path d="M284.938 398.945C286.466 398.945 287.622 399.654 288.408 401.073C289.207 402.476 289.607 404.519 289.607 407.201C289.607 409.882 289.207 411.933 288.408 413.352C287.622 414.771 286.466 415.48 284.938 415.48C283.425 415.48 282.268 414.771 281.469 413.352C280.669 411.933 280.27 409.882 280.27 407.201C280.27 404.534 280.669 402.492 281.469 401.073C282.268 399.654 283.425 398.945 284.938 398.945ZM281.79 407.201C281.79 409.103 281.947 410.592 282.261 411.668L287.016 401.307C286.516 400.574 285.823 400.207 284.938 400.207C283.953 400.207 283.182 400.784 282.625 401.938C282.069 403.076 281.79 404.831 281.79 407.201ZM284.938 414.194C285.938 414.194 286.716 413.625 287.273 412.486C287.829 411.333 288.108 409.571 288.108 407.201C288.108 405.189 287.929 403.63 287.572 402.523L282.818 412.977C283.332 413.788 284.039 414.194 284.938 414.194Z" fill="url(#paint13_linear_122_130)" fill-opacity="0.6"/>
<path d="M286.223 440.736H289.371V441.976H281.212V440.736H284.853V427.592L281.383 429.861L280.784 428.808L285.067 425.908H286.223V440.736Z" fill="url(#paint14_linear_122_130)" fill-opacity="0.6"/>
<path d="M284.938 452.403C286.466 452.403 287.622 453.113 288.408 454.532C289.207 455.935 289.607 457.978 289.607 460.66C289.607 463.341 289.207 465.392 288.408 466.811C287.622 468.23 286.466 468.939 284.938 468.939C283.425 468.939 282.268 468.23 281.469 466.811C280.669 465.392 280.27 463.341 280.27 460.66C280.27 457.993 280.669 455.951 281.469 454.532C282.268 453.113 283.425 452.403 284.938 452.403ZM281.79 460.66C281.79 462.562 281.947 464.051 282.261 465.127L287.016 454.766C286.516 454.033 285.823 453.666 284.938 453.666C283.953 453.666 283.182 454.243 282.625 455.397C282.069 456.535 281.79 458.29 281.79 460.66ZM284.938 467.653C285.938 467.653 286.716 467.084 287.273 465.945C287.829 464.791 288.108 463.03 288.108 460.66C288.108 458.648 287.929 457.089 287.572 455.982L282.818 466.436C283.332 467.247 284.039 467.653 284.938 467.653Z" fill="url(#paint15_linear_122_130)" fill-opacity="0.6"/>
<path d="M284.938 479.133C286.466 479.133 287.622 479.842 288.408 481.261C289.207 482.665 289.607 484.707 289.607 487.389C289.607 490.071 289.207 492.121 288.408 493.54C287.622 494.959 286.466 495.669 284.938 495.669C283.425 495.669 282.268 494.959 281.469 493.54C280.669 492.121 280.27 490.071 280.27 487.389C280.27 484.723 280.669 482.68 281.469 481.261C282.268 479.842 283.425 479.133 284.938 479.133ZM281.79 487.389C281.79 489.291 281.947 490.78 282.261 491.856L287.016 481.495C286.516 480.762 285.823 480.396 284.938 480.396C283.953 480.396 283.182 480.973 282.625 482.127C282.069 483.265 281.79 485.019 281.79 487.389ZM284.938 494.382C285.938 494.382 286.716 493.813 287.273 492.675C287.829 491.521 288.108 489.759 288.108 487.389C288.108 485.378 287.929 483.818 287.572 482.711L282.818 493.166C283.332 493.977 284.039 494.382 284.938 494.382Z" fill="url(#paint16_linear_122_130)" fill-opacity="0.6"/>
<path d="M286.223 520.925H289.371V522.164H281.212V520.925H284.853V507.78L281.383 510.049L280.784 508.996L285.067 506.096H286.223V520.925Z" fill="url(#paint17_linear_122_130)" fill-opacity="0.6"/>
<path d="M284.938 532.592C286.466 532.592 287.622 533.301 288.408 534.72C289.207 536.124 289.607 538.166 289.607 540.848C289.607 543.53 289.207 545.58 288.408 546.999C287.622 548.418 286.466 549.127 284.938 549.127C283.425 549.127 282.268 548.418 281.469 546.999C280.669 545.58 280.27 543.53 280.27 540.848C280.27 538.182 280.669 536.139 281.469 534.72C282.268 533.301 283.425 532.592 284.938 532.592ZM281.79 540.848C281.79 542.75 281.947 544.239 282.261 545.315L287.016 534.954C286.516 534.221 285.823 533.855 284.938 533.855C283.953 533.855 283.182 534.432 282.625 535.586C282.069 536.724 281.79 538.478 281.79 540.848ZM284.938 547.841C285.938 547.841 286.716 547.272 287.273 546.134C287.829 544.98 288.108 543.218 288.108 540.848C288.108 538.837 287.929 537.277 287.572 536.17L282.818 546.625C283.332 547.436 284.039 547.841 284.938 547.841Z" fill="url(#paint18_linear_122_130)" fill-opacity="0.6"/>
<path d="M286.223 574.384H289.371V575.623H281.212V574.384H284.853V561.239L281.383 563.508L280.784 562.455L285.067 559.555H286.223V574.384Z" fill="url(#paint19_linear_122_130)" fill-opacity="0.6"/>
<path d="M284.938 586.051C286.466 586.051 287.622 586.76 288.408 588.179C289.207 589.583 289.607 591.625 289.607 594.307C289.607 596.989 289.207 599.039 288.408 600.458C287.622 601.877 286.466 602.586 284.938 602.586C283.425 602.586 282.268 601.877 281.469 600.458C280.669 599.039 280.27 596.989 280.27 594.307C280.27 591.641 280.669 589.598 281.469 588.179C282.268 586.76 283.425 586.051 284.938 586.051ZM281.79 594.307C281.79 596.209 281.947 597.698 282.261 598.774L287.016 588.413C286.516 587.68 285.823 587.314 284.938 587.314C283.953 587.314 283.182 587.891 282.625 589.045C282.069 590.183 281.79 591.937 281.79 594.307ZM284.938 601.3C285.938 601.3 286.716 600.731 287.273 599.593C287.829 598.439 288.108 596.677 288.108 594.307C288.108 592.296 287.929 590.736 287.572 589.629L282.818 600.084C283.332 600.895 284.039 601.3 284.938 601.3Z" fill="url(#paint20_linear_122_130)" fill-opacity="0.6"/>
<path d="M284.938 612.78C286.466 612.78 287.622 613.49 288.408 614.909C289.207 616.312 289.607 618.355 289.607 621.036C289.607 623.718 289.207 625.769 288.408 627.188C287.622 628.606 286.466 629.316 284.938 629.316C283.425 629.316 282.268 628.606 281.469 627.188C280.669 625.769 280.27 623.718 280.27 621.036C280.27 618.37 280.669 616.328 281.469 614.909C282.268 613.49 283.425 612.78 284.938 612.78ZM281.79 621.036C281.79 622.939 281.947 624.428 282.261 625.504L287.016 615.143C286.516 614.41 285.823 614.043 284.938 614.043C283.953 614.043 283.182 614.62 282.625 615.774C282.069 616.912 281.79 618.666 281.79 621.036ZM284.938 628.03C285.938 628.03 286.716 627.46 287.273 626.322C287.829 625.168 288.108 623.406 288.108 621.036C288.108 619.025 287.929 617.466 287.572 616.359L282.818 626.813C283.332 627.624 284.039 628.03 284.938 628.03Z" fill="url(#paint21_linear_122_130)" fill-opacity="0.6"/>
<path d="M286.223 654.572H289.371V655.812H281.212V654.572H284.853V641.428L281.383 643.696L280.784 642.644L285.067 639.744H286.223V654.572Z" fill="url(#paint22_linear_122_130)" fill-opacity="0.6"/>
<path d="M284.938 666.239C286.466 666.239 287.622 666.949 288.408 668.368C289.207 669.771 289.607 671.814 289.607 674.495C289.607 677.177 289.207 679.228 288.408 680.647C287.622 682.065 286.466 682.775 284.938 682.775C283.425 682.775 282.268 682.065 281.469 680.647C280.669 679.228 280.27 677.177 280.27 674.495C280.27 671.829 280.669 669.787 281.469 668.368C282.268 666.949 283.425 666.239 284.938 666.239ZM281.79 674.495C281.79 676.398 281.947 677.887 282.261 678.963L287.016 668.602C286.516 667.869 285.823 667.502 284.938 667.502C283.953 667.502 283.182 668.079 282.625 669.233C282.069 670.371 281.79 672.125 281.79 674.495ZM284.938 681.489C285.938 681.489 286.716 680.919 287.273 679.781C287.829 678.627 288.108 676.865 288.108 674.495C288.108 672.484 287.929 670.925 287.572 669.818L282.818 680.272C283.332 681.083 284.039 681.489 284.938 681.489Z" fill="url(#paint23_linear_122_130)" fill-opacity="0.6"/>
<path d="M286.223 708.031H289.371V709.271H281.212V708.031H284.853V694.887L281.383 697.155L280.784 696.103L285.067 693.203H286.223V708.031Z" fill="url(#paint24_linear_122_130)" fill-opacity="0.6"/>
<path d="M286.223 734.76H289.371V736H281.212V734.76H284.853V721.616L281.383 723.885L280.784 722.832L285.067 719.932H286.223V734.76Z" fill="url(#paint25_linear_122_130)" fill-opacity="0.6"/>
<path d="M225.28 425.674C226.808 425.674 227.964 426.383 228.749 427.802C229.549 429.206 229.949 431.248 229.949 433.93C229.949 436.612 229.549 438.662 228.749 440.081C227.964 441.5 226.808 442.21 225.28 442.21C223.767 442.21 222.61 441.5 221.811 440.081C221.011 438.662 220.611 436.612 220.611 433.93C220.611 431.264 221.011 429.221 221.811 427.802C222.61 426.383 223.767 425.674 225.28 425.674ZM222.132 433.93C222.132 435.832 222.289 437.321 222.603 438.397L227.357 428.036C226.858 427.303 226.165 426.937 225.28 426.937C224.295 426.937 223.524 427.514 222.967 428.668C222.41 429.806 222.132 431.56 222.132 433.93ZM225.28 440.923C226.279 440.923 227.058 440.354 227.614 439.216C228.171 438.062 228.45 436.3 228.45 433.93C228.45 431.919 228.271 430.359 227.914 429.252L223.16 439.707C223.674 440.518 224.381 440.923 225.28 440.923Z" fill="url(#paint26_linear_122_130)" fill-opacity="0.6"/>
<path d="M225.28 452.403C226.808 452.403 227.964 453.113 228.749 454.532C229.549 455.935 229.949 457.978 229.949 460.66C229.949 463.341 229.549 465.392 228.749 466.811C227.964 468.23 226.808 468.939 225.28 468.939C223.767 468.939 222.61 468.23 221.811 466.811C221.011 465.392 220.611 463.341 220.611 460.66C220.611 457.993 221.011 455.951 221.811 454.532C222.61 453.113 223.767 452.403 225.28 452.403ZM222.132 460.66C222.132 462.562 222.289 464.051 222.603 465.127L227.357 454.766C226.858 454.033 226.165 453.666 225.28 453.666C224.295 453.666 223.524 454.243 222.967 455.397C222.41 456.535 222.132 458.29 222.132 460.66ZM225.28 467.653C226.279 467.653 227.058 467.084 227.614 465.945C228.171 464.791 228.45 463.03 228.45 460.66C228.45 458.648 228.271 457.089 227.914 455.982L223.16 466.436C223.674 467.247 224.381 467.653 225.28 467.653Z" fill="url(#paint27_linear_122_130)" fill-opacity="0.6"/>
<path d="M226.565 494.195H229.713V495.435H221.554V494.195H225.194V481.051L221.725 483.319L221.125 482.267L225.409 479.367H226.565V494.195Z" fill="url(#paint28_linear_122_130)" fill-opacity="0.6"/>
<path d="M225.28 505.862C226.808 505.862 227.964 506.572 228.749 507.991C229.549 509.394 229.949 511.437 229.949 514.119C229.949 516.8 229.549 518.851 228.749 520.27C227.964 521.689 226.808 522.398 225.28 522.398C223.767 522.398 222.61 521.689 221.811 520.27C221.011 518.851 220.611 516.8 220.611 514.119C220.611 511.452 221.011 509.41 221.811 507.991C222.61 506.572 223.767 505.862 225.28 505.862ZM222.132 514.119C222.132 516.021 222.289 517.51 222.603 518.586L227.357 508.225C226.858 507.492 226.165 507.125 225.28 507.125C224.295 507.125 223.524 507.702 222.967 508.856C222.41 509.994 222.132 511.749 222.132 514.119ZM225.28 521.112C226.279 521.112 227.058 520.543 227.614 519.404C228.171 518.25 228.45 516.489 228.45 514.119C228.45 512.107 228.271 510.548 227.914 509.441L223.16 519.895C223.674 520.706 224.381 521.112 225.28 521.112Z" fill="url(#paint29_linear_122_130)" fill-opacity="0.6"/>
<path d="M226.565 547.654H229.713V548.894H221.554V547.654H225.194V534.51L221.725 536.778L221.125 535.726L225.409 532.826H226.565V547.654Z" fill="url(#paint30_linear_122_130)" fill-opacity="0.6"/>
<path d="M226.565 574.384H229.713V575.623H221.554V574.384H225.194V561.239L221.725 563.508L221.125 562.455L225.409 559.555H226.565V574.384Z" fill="url(#paint31_linear_122_130)" fill-opacity="0.6"/>
<path d="M266.337 387.277H269.485V388.517H261.326V387.277H264.967V374.133L261.497 376.402L260.898 375.349L265.181 372.449H266.337V387.277Z" fill="url(#paint32_linear_122_130)" fill-opacity="0.6"/>
<path d="M265.052 398.945C266.58 398.945 267.736 399.654 268.522 401.073C269.321 402.476 269.721 404.519 269.721 407.201C269.721 409.882 269.321 411.933 268.522 413.352C267.736 414.771 266.58 415.48 265.052 415.48C263.539 415.48 262.382 414.771 261.583 413.352C260.783 411.933 260.384 409.882 260.384 407.201C260.384 404.534 260.783 402.492 261.583 401.073C262.382 399.654 263.539 398.945 265.052 398.945ZM261.904 407.201C261.904 409.103 262.061 410.592 262.375 411.668L267.129 401.307C266.63 400.574 265.937 400.207 265.052 400.207C264.067 400.207 263.296 400.784 262.739 401.938C262.182 403.076 261.904 404.831 261.904 407.201ZM265.052 414.194C266.052 414.194 266.83 413.625 267.386 412.486C267.943 411.333 268.222 409.571 268.222 407.201C268.222 405.189 268.043 403.63 267.686 402.523L262.932 412.977C263.446 413.788 264.153 414.194 265.052 414.194Z" fill="url(#paint33_linear_122_130)" fill-opacity="0.6"/>
<path d="M266.337 440.736H269.485V441.976H261.326V440.736H264.967V427.592L261.497 429.861L260.898 428.808L265.181 425.908H266.337V440.736Z" fill="url(#paint34_linear_122_130)" fill-opacity="0.6"/>
<path d="M266.337 467.466H269.485V468.705H261.326V467.466H264.967V454.321L261.497 456.59L260.898 455.538L265.181 452.637H266.337V467.466Z" fill="url(#paint35_linear_122_130)" fill-opacity="0.6"/>
<path d="M265.052 479.133C266.58 479.133 267.736 479.842 268.522 481.261C269.321 482.665 269.721 484.707 269.721 487.389C269.721 490.071 269.321 492.121 268.522 493.54C267.736 494.959 266.58 495.669 265.052 495.669C263.539 495.669 262.382 494.959 261.583 493.54C260.783 492.121 260.384 490.071 260.384 487.389C260.384 484.723 260.783 482.68 261.583 481.261C262.382 479.842 263.539 479.133 265.052 479.133ZM261.904 487.389C261.904 489.291 262.061 490.78 262.375 491.856L267.129 481.495C266.63 480.762 265.937 480.396 265.052 480.396C264.067 480.396 263.296 480.973 262.739 482.127C262.182 483.265 261.904 485.019 261.904 487.389ZM265.052 494.382C266.052 494.382 266.83 493.813 267.386 492.675C267.943 491.521 268.222 489.759 268.222 487.389C268.222 485.378 268.043 483.818 267.686 482.711L262.932 493.166C263.446 493.977 264.153 494.382 265.052 494.382Z" fill="url(#paint36_linear_122_130)" fill-opacity="0.6"/>
<path d="M266.337 520.925H269.485V522.164H261.326V520.925H264.967V507.78L261.497 510.049L260.898 508.996L265.181 506.096H266.337V520.925Z" fill="url(#paint37_linear_122_130)" fill-opacity="0.6"/>
<path d="M266.337 547.654H269.485V548.894H261.326V547.654H264.967V534.51L261.497 536.778L260.898 535.726L265.181 532.826H266.337V547.654Z" fill="url(#paint38_linear_122_130)" fill-opacity="0.6"/>
<path d="M265.052 559.321C266.58 559.321 267.736 560.031 268.522 561.45C269.321 562.853 269.721 564.896 269.721 567.578C269.721 570.259 269.321 572.31 268.522 573.729C267.736 575.147 266.58 575.857 265.052 575.857C263.539 575.857 262.382 575.147 261.583 573.729C260.783 572.31 260.384 570.259 260.384 567.578C260.384 564.911 260.783 562.869 261.583 561.45C262.382 560.031 263.539 559.321 265.052 559.321ZM261.904 567.578C261.904 569.48 262.061 570.969 262.375 572.045L267.129 561.684C266.63 560.951 265.937 560.584 265.052 560.584C264.067 560.584 263.296 561.161 262.739 562.315C262.182 563.453 261.904 565.207 261.904 567.578ZM265.052 574.571C266.052 574.571 266.83 574.001 267.386 572.863C267.943 571.709 268.222 569.948 268.222 567.578C268.222 565.566 268.043 564.007 267.686 562.9L262.932 573.354C263.446 574.165 264.153 574.571 265.052 574.571Z" fill="url(#paint39_linear_122_130)" fill-opacity="0.6"/>
<path d="M266.337 601.113H269.485V602.353H261.326V601.113H264.967V587.969L261.497 590.237L260.898 589.185L265.181 586.285H266.337V601.113Z" fill="url(#paint40_linear_122_130)" fill-opacity="0.6"/>
<path d="M265.052 612.78C266.58 612.78 267.736 613.49 268.522 614.909C269.321 616.312 269.721 618.355 269.721 621.036C269.721 623.718 269.321 625.769 268.522 627.188C267.736 628.606 266.58 629.316 265.052 629.316C263.539 629.316 262.382 628.606 261.583 627.188C260.783 625.769 260.384 623.718 260.384 621.036C260.384 618.37 260.783 616.328 261.583 614.909C262.382 613.49 263.539 612.78 265.052 612.78ZM261.904 621.036C261.904 622.939 262.061 624.428 262.375 625.504L267.129 615.143C266.63 614.41 265.937 614.043 265.052 614.043C264.067 614.043 263.296 614.62 262.739 615.774C262.182 616.912 261.904 618.666 261.904 621.036ZM265.052 628.03C266.052 628.03 266.83 627.46 267.386 626.322C267.943 625.168 268.222 623.406 268.222 621.036C268.222 619.025 268.043 617.466 267.686 616.359L262.932 626.813C263.446 627.624 264.153 628.03 265.052 628.03Z" fill="url(#paint41_linear_122_130)" fill-opacity="0.6"/>
<path d="M304.824 372.215C306.352 372.215 307.508 372.924 308.294 374.343C309.093 375.747 309.493 377.789 309.493 380.471C309.493 383.153 309.093 385.203 308.294 386.622C307.508 388.041 306.352 388.751 304.824 388.751C303.311 388.751 302.154 388.041 301.355 386.622C300.555 385.203 300.156 383.153 300.156 380.471C300.156 377.805 300.555 375.762 301.355 374.343C302.154 372.924 303.311 372.215 304.824 372.215ZM301.676 380.471C301.676 382.373 301.833 383.862 302.147 384.938L306.902 374.577C306.402 373.844 305.709 373.478 304.824 373.478C303.839 373.478 303.068 374.055 302.511 375.209C301.955 376.347 301.676 378.101 301.676 380.471ZM304.824 387.464C305.824 387.464 306.602 386.895 307.159 385.757C307.715 384.603 307.994 382.841 307.994 380.471C307.994 378.46 307.815 376.9 307.458 375.793L302.704 386.248C303.218 387.059 303.925 387.464 304.824 387.464Z" fill="url(#paint42_linear_122_130)" fill-opacity="0.6"/>
<path d="M306.109 414.007H309.257V415.246H301.098V414.007H304.739V400.862L301.269 403.131L300.67 402.079L304.953 399.178H306.109V414.007Z" fill="url(#paint43_linear_122_130)" fill-opacity="0.6"/>
<path d="M306.109 440.736H309.257V441.976H301.098V440.736H304.739V427.592L301.269 429.861L300.67 428.808L304.953 425.908H306.109V440.736Z" fill="url(#paint44_linear_122_130)" fill-opacity="0.6"/>
<path d="M304.824 452.403C306.352 452.403 307.508 453.113 308.294 454.532C309.093 455.935 309.493 457.978 309.493 460.66C309.493 463.341 309.093 465.392 308.294 466.811C307.508 468.23 306.352 468.939 304.824 468.939C303.311 468.939 302.154 468.23 301.355 466.811C300.555 465.392 300.156 463.341 300.156 460.66C300.156 457.993 300.555 455.951 301.355 454.532C302.154 453.113 303.311 452.403 304.824 452.403ZM301.676 460.66C301.676 462.562 301.833 464.051 302.147 465.127L306.902 454.766C306.402 454.033 305.709 453.666 304.824 453.666C303.839 453.666 303.068 454.243 302.511 455.397C301.955 456.535 301.676 458.29 301.676 460.66ZM304.824 467.653C305.824 467.653 306.602 467.084 307.159 465.945C307.715 464.791 307.994 463.03 307.994 460.66C307.994 458.648 307.815 457.089 307.458 455.982L302.704 466.436C303.218 467.247 303.925 467.653 304.824 467.653Z" fill="url(#paint45_linear_122_130)" fill-opacity="0.6"/>
<path d="M304.824 479.133C306.352 479.133 307.508 479.842 308.294 481.261C309.093 482.665 309.493 484.707 309.493 487.389C309.493 490.071 309.093 492.121 308.294 493.54C307.508 494.959 306.352 495.669 304.824 495.669C303.311 495.669 302.154 494.959 301.355 493.54C300.555 492.121 300.156 490.071 300.156 487.389C300.156 484.723 300.555 482.68 301.355 481.261C302.154 479.842 303.311 479.133 304.824 479.133ZM301.676 487.389C301.676 489.291 301.833 490.78 302.147 491.856L306.902 481.495C306.402 480.762 305.709 480.396 304.824 480.396C303.839 480.396 303.068 480.973 302.511 482.127C301.955 483.265 301.676 485.019 301.676 487.389ZM304.824 494.382C305.824 494.382 306.602 493.813 307.159 492.675C307.715 491.521 307.994 489.759 307.994 487.389C307.994 485.378 307.815 483.818 307.458 482.711L302.704 493.166C303.218 493.977 303.925 494.382 304.824 494.382Z" fill="url(#paint46_linear_122_130)" fill-opacity="0.6"/>
</g>
<defs>
<filter id="filter0_f_122_130" x="-350.19" y="-714.19" width="2170.38" height="1588.16" filterUnits="userSpaceOnUse" color-interpolation-filters="sRGB">
<feFlood flood-opacity="0" result="BackgroundImageFix"/>
<feBlend mode="normal" in="SourceGraphic" in2="BackgroundImageFix" result="shape"/>
<feGaussianBlur stdDeviation="200.095" result="effect1_foregroundBlur_122_130"/>
</filter>
<linearGradient id="paint0_linear_122_130" x1="265.052" y1="345.486" x2="265.052" y2="695.914" gradientUnits="userSpaceOnUse">
<stop stop-color="#F7DD43"/>
<stop offset="1" stop-color="#F7DD43" stop-opacity="0"/>
</linearGradient>
<linearGradient id="paint1_linear_122_130" x1="265.052" y1="345.486" x2="265.052" y2="695.914" gradientUnits="userSpaceOnUse">
<stop stop-color="#F7DD43"/>
<stop offset="1" stop-color="#F7DD43" stop-opacity="0"/>
</linearGradient>
<linearGradient id="paint2_linear_122_130" x1="265.052" y1="345.486" x2="265.052" y2="695.914" gradientUnits="userSpaceOnUse">
<stop stop-color="#F7DD43"/>
<stop offset="1" stop-color="#F7DD43" stop-opacity="0"/>
</linearGradient>
<linearGradient id="paint3_linear_122_130" x1="265.052" y1="345.486" x2="265.052" y2="695.914" gradientUnits="userSpaceOnUse">
<stop stop-color="#F7DD43"/>
<stop offset="1" stop-color="#F7DD43" stop-opacity="0"/>
</linearGradient>
<linearGradient id="paint4_linear_122_130" x1="265.052" y1="345.486" x2="265.052" y2="695.914" gradientUnits="userSpaceOnUse">
<stop stop-color="#F7DD43"/>
<stop offset="1" stop-color="#F7DD43" stop-opacity="0"/>
</linearGradient>
<linearGradient id="paint5_linear_122_130" x1="265.052" y1="345.486" x2="265.052" y2="695.914" gradientUnits="userSpaceOnUse">
<stop stop-color="#F7DD43"/>
<stop offset="1" stop-color="#F7DD43" stop-opacity="0"/>
</linearGradient>
<linearGradient id="paint6_linear_122_130" x1="265.052" y1="345.486" x2="265.052" y2="695.914" gradientUnits="userSpaceOnUse">
<stop stop-color="#F7DD43"/>
<stop offset="1" stop-color="#F7DD43" stop-opacity="0"/>
</linearGradient>
<linearGradient id="paint7_linear_122_130" x1="265.052" y1="345.486" x2="265.052" y2="695.914" gradientUnits="userSpaceOnUse">
<stop stop-color="#F7DD43"/>
<stop offset="1" stop-color="#F7DD43" stop-opacity="0"/>
</linearGradient>
<linearGradient id="paint8_linear_122_130" x1="265.052" y1="345.486" x2="265.052" y2="695.914" gradientUnits="userSpaceOnUse">
<stop stop-color="#F7DD43"/>
<stop offset="1" stop-color="#F7DD43" stop-opacity="0"/>
</linearGradient>
<linearGradient id="paint9_linear_122_130" x1="265.052" y1="345.486" x2="265.052" y2="695.914" gradientUnits="userSpaceOnUse">
<stop stop-color="#F7DD43"/>
<stop offset="1" stop-color="#F7DD43" stop-opacity="0"/>
</linearGradient>
<linearGradient id="paint10_linear_122_130" x1="265.052" y1="345.486" x2="265.052" y2="695.914" gradientUnits="userSpaceOnUse">
<stop stop-color="#F7DD43"/>
<stop offset="1" stop-color="#F7DD43" stop-opacity="0"/>
</linearGradient>
<linearGradient id="paint11_linear_122_130" x1="265.052" y1="345.486" x2="265.052" y2="695.914" gradientUnits="userSpaceOnUse">
<stop stop-color="#F7DD43"/>
<stop offset="1" stop-color="#F7DD43" stop-opacity="0"/>
</linearGradient>
<linearGradient id="paint12_linear_122_130" x1="265.052" y1="345.486" x2="265.052" y2="695.914" gradientUnits="userSpaceOnUse">
<stop stop-color="#F7DD43"/>
<stop offset="1" stop-color="#F7DD43" stop-opacity="0"/>
</linearGradient>
<linearGradient id="paint13_linear_122_130" x1="265.052" y1="345.486" x2="265.052" y2="695.914" gradientUnits="userSpaceOnUse">
<stop stop-color="#F7DD43"/>
<stop offset="1" stop-color="#F7DD43" stop-opacity="0"/>
</linearGradient>
<linearGradient id="paint14_linear_122_130" x1="265.052" y1="345.486" x2="265.052" y2="695.914" gradientUnits="userSpaceOnUse">
<stop stop-color="#F7DD43"/>
<stop offset="1" stop-color="#F7DD43" stop-opacity="0"/>
</linearGradient>
<linearGradient id="paint15_linear_122_130" x1="265.052" y1="345.486" x2="265.052" y2="695.914" gradientUnits="userSpaceOnUse">
<stop stop-color="#F7DD43"/>
<stop offset="1" stop-color="#F7DD43" stop-opacity="0"/>
</linearGradient>
<linearGradient id="paint16_linear_122_130" x1="265.052" y1="345.486" x2="265.052" y2="695.914" gradientUnits="userSpaceOnUse">
<stop stop-color="#F7DD43"/>
<stop offset="1" stop-color="#F7DD43" stop-opacity="0"/>
</linearGradient>
<linearGradient id="paint17_linear_122_130" x1="265.052" y1="345.486" x2="265.052" y2="695.914" gradientUnits="userSpaceOnUse">
<stop stop-color="#F7DD43"/>
<stop offset="1" stop-color="#F7DD43" stop-opacity="0"/>
</linearGradient>
<linearGradient id="paint18_linear_122_130" x1="265.052" y1="345.486" x2="265.052" y2="695.914" gradientUnits="userSpaceOnUse">
<stop stop-color="#F7DD43"/>
<stop offset="1" stop-color="#F7DD43" stop-opacity="0"/>
</linearGradient>
<linearGradient id="paint19_linear_122_130" x1="265.052" y1="345.486" x2="265.052" y2="695.914" gradientUnits="userSpaceOnUse">
<stop stop-color="#F7DD43"/>
<stop offset="1" stop-color="#F7DD43" stop-opacity="0"/>
</linearGradient>
<linearGradient id="paint20_linear_122_130" x1="265.052" y1="345.486" x2="265.052" y2="695.914" gradientUnits="userSpaceOnUse">
<stop stop-color="#F7DD43"/>
<stop offset="1" stop-color="#F7DD43" stop-opacity="0"/>
</linearGradient>
<linearGradient id="paint21_linear_122_130" x1="265.052" y1="345.486" x2="265.052" y2="695.914" gradientUnits="userSpaceOnUse">
<stop stop-color="#F7DD43"/>
<stop offset="1" stop-color="#F7DD43" stop-opacity="0"/>
</linearGradient>
<linearGradient id="paint22_linear_122_130" x1="265.052" y1="345.486" x2="265.052" y2="695.914" gradientUnits="userSpaceOnUse">
<stop stop-color="#F7DD43"/>
<stop offset="1" stop-color="#F7DD43" stop-opacity="0"/>
</linearGradient>
<linearGradient id="paint23_linear_122_130" x1="265.052" y1="345.486" x2="265.052" y2="695.914" gradientUnits="userSpaceOnUse">
<stop stop-color="#F7DD43"/>
<stop offset="1" stop-color="#F7DD43" stop-opacity="0"/>
</linearGradient>
<linearGradient id="paint24_linear_122_130" x1="265.052" y1="345.486" x2="265.052" y2="695.914" gradientUnits="userSpaceOnUse">
<stop stop-color="#F7DD43"/>
<stop offset="1" stop-color="#F7DD43" stop-opacity="0"/>
</linearGradient>
<linearGradient id="paint25_linear_122_130" x1="265.052" y1="345.486" x2="265.052" y2="695.914" gradientUnits="userSpaceOnUse">
<stop stop-color="#F7DD43"/>
<stop offset="1" stop-color="#F7DD43" stop-opacity="0"/>
</linearGradient>
<linearGradient id="paint26_linear_122_130" x1="265.052" y1="345.486" x2="265.052" y2="695.914" gradientUnits="userSpaceOnUse">
<stop stop-color="#F7DD43"/>
<stop offset="1" stop-color="#F7DD43" stop-opacity="0"/>
</linearGradient>
<linearGradient id="paint27_linear_122_130" x1="265.052" y1="345.486" x2="265.052" y2="695.914" gradientUnits="userSpaceOnUse">
<stop stop-color="#F7DD43"/>
<stop offset="1" stop-color="#F7DD43" stop-opacity="0"/>
</linearGradient>
<linearGradient id="paint28_linear_122_130" x1="265.052" y1="345.486" x2="265.052" y2="695.914" gradientUnits="userSpaceOnUse">
<stop stop-color="#F7DD43"/>
<stop offset="1" stop-color="#F7DD43" stop-opacity="0"/>
</linearGradient>
<linearGradient id="paint29_linear_122_130" x1="265.052" y1="345.486" x2="265.052" y2="695.914" gradientUnits="userSpaceOnUse">
<stop stop-color="#F7DD43"/>
<stop offset="1" stop-color="#F7DD43" stop-opacity="0"/>
</linearGradient>
<linearGradient id="paint30_linear_122_130" x1="265.052" y1="345.486" x2="265.052" y2="695.914" gradientUnits="userSpaceOnUse">
<stop stop-color="#F7DD43"/>
<stop offset="1" stop-color="#F7DD43" stop-opacity="0"/>
</linearGradient>
<linearGradient id="paint31_linear_122_130" x1="265.052" y1="345.486" x2="265.052" y2="695.914" gradientUnits="userSpaceOnUse">
<stop stop-color="#F7DD43"/>
<stop offset="1" stop-color="#F7DD43" stop-opacity="0"/>
</linearGradient>
<linearGradient id="paint32_linear_122_130" x1="265.052" y1="345.486" x2="265.052" y2="695.914" gradientUnits="userSpaceOnUse">
<stop stop-color="#F7DD43"/>
<stop offset="1" stop-color="#F7DD43" stop-opacity="0"/>
</linearGradient>
<linearGradient id="paint33_linear_122_130" x1="265.052" y1="345.486" x2="265.052" y2="695.914" gradientUnits="userSpaceOnUse">
<stop stop-color="#F7DD43"/>
<stop offset="1" stop-color="#F7DD43" stop-opacity="0"/>
</linearGradient>
<linearGradient id="paint34_linear_122_130" x1="265.052" y1="345.486" x2="265.052" y2="695.914" gradientUnits="userSpaceOnUse">
<stop stop-color="#F7DD43"/>
<stop offset="1" stop-color="#F7DD43" stop-opacity="0"/>
</linearGradient>
<linearGradient id="paint35_linear_122_130" x1="265.052" y1="345.486" x2="265.052" y2="695.914" gradientUnits="userSpaceOnUse">
<stop stop-color="#F7DD43"/>
<stop offset="1" stop-color="#F7DD43" stop-opacity="0"/>
</linearGradient>
<linearGradient id="paint36_linear_122_130" x1="265.052" y1="345.486" x2="265.052" y2="695.914" gradientUnits="userSpaceOnUse">
<stop stop-color="#F7DD43"/>
<stop offset="1" stop-color="#F7DD43" stop-opacity="0"/>
</linearGradient>
<linearGradient id="paint37_linear_122_130" x1="265.052" y1="345.486" x2="265.052" y2="695.914" gradientUnits="userSpaceOnUse">
<stop stop-color="#F7DD43"/>
<stop offset="1" stop-color="#F7DD43" stop-opacity="0"/>
</linearGradient>
<linearGradient id="paint38_linear_122_130" x1="265.052" y1="345.486" x2="265.052" y2="695.914" gradientUnits="userSpaceOnUse">
<stop stop-color="#F7DD43"/>
<stop offset="1" stop-color="#F7DD43" stop-opacity="0"/>
</linearGradient>
<linearGradient id="paint39_linear_122_130" x1="265.052" y1="345.486" x2="265.052" y2="695.914" gradientUnits="userSpaceOnUse">
<stop stop-color="#F7DD43"/>
<stop offset="1" stop-color="#F7DD43" stop-opacity="0"/>
</linearGradient>
<linearGradient id="paint40_linear_122_130" x1="265.052" y1="345.486" x2="265.052" y2="695.914" gradientUnits="userSpaceOnUse">
<stop stop-color="#F7DD43"/>
<stop offset="1" stop-color="#F7DD43" stop-opacity="0"/>
</linearGradient>
<linearGradient id="paint41_linear_122_130" x1="265.052" y1="345.486" x2="265.052" y2="695.914" gradientUnits="userSpaceOnUse">
<stop stop-color="#F7DD43"/>
<stop offset="1" stop-color="#F7DD43" stop-opacity="0"/>
</linearGradient>
<linearGradient id="paint42_linear_122_130" x1="265.052" y1="345.486" x2="265.052" y2="695.914" gradientUnits="userSpaceOnUse">
<stop stop-color="#F7DD43"/>
<stop offset="1" stop-color="#F7DD43" stop-opacity="0"/>
</linearGradient>
<linearGradient id="paint43_linear_122_130" x1="265.052" y1="345.486" x2="265.052" y2="695.914" gradientUnits="userSpaceOnUse">
<stop stop-color="#F7DD43"/>
<stop offset="1" stop-color="#F7DD43" stop-opacity="0"/>
</linearGradient>
<linearGradient id="paint44_linear_122_130" x1="265.052" y1="345.486" x2="265.052" y2="695.914" gradientUnits="userSpaceOnUse">
<stop stop-color="#F7DD43"/>
<stop offset="1" stop-color="#F7DD43" stop-opacity="0"/>
</linearGradient>
<linearGradient id="paint45_linear_122_130" x1="265.052" y1="345.486" x2="265.052" y2="695.914" gradientUnits="userSpaceOnUse">
<stop stop-color="#F7DD43"/>
<stop offset="1" stop-color="#F7DD43" stop-opacity="0"/>
</linearGradient>
<linearGradient id="paint46_linear_122_130" x1="265.052" y1="345.486" x2="265.052" y2="695.914" gradientUnits="userSpaceOnUse">
<stop stop-color="#F7DD43"/>
<stop offset="1" stop-color="#F7DD43" stop-opacity="0"/>
</linearGradient>
<clipPath id="clip0_122_130">
<rect width="1024" height="753" fill="white"/>
</clipPath>
</defs>
</svg>
